<?xml version="1.0" encoding="UTF-8"?><svg id="Slimify_Logo_Red" xmlns="http://www.w3.org/2000/svg" viewBox="0 0 1180.55 2048"><defs><style>.cls-1{fill:red;}</style></defs><path class="cls-1" d="M708.25,209.57c-18.84,10.88-42.94,4.42-53.81-14.42-10.88-18.84-4.42-42.94,14.42-53.81l195.89-113.1c100.68-58.13,229.43-23.63,287.56,77.05h0c58.13,100.68,23.63,229.43-77.05,287.56l-320.65,185.13c-100.68,58.13-229.43,23.63-287.56-77.05h0c-10.88-18.84-4.42-42.94,14.42-53.81s42.94-4.42,53.81,14.42c36.31,62.9,117.03,84.53,179.93,48.21l320.65-185.13c62.9-36.31,84.53-117.03,48.21-179.93-36.31-62.9-117.03-84.53-179.93-48.21l-195.9,113.1"/><path class="cls-1" d="M475.34,648.23c18.84-10.88,42.94-4.42,53.81,14.42,10.88,18.84,4.42,42.94-14.42,53.81l-195.89,113.1c-100.68,58.13-229.43,23.63-287.56-77.05h0c-58.13-100.68-23.63-229.43,77.05-287.56l320.65-185.13c100.68-58.13,229.43-23.63,287.56,77.05h0c10.88,18.84,4.42,42.94-14.42,53.81-18.84,10.88-42.94,4.42-53.81-14.42-36.31-62.9-117.03-84.53-179.93-48.21l-320.65,185.13c-62.9,36.31-84.53,117.03-48.21,179.93,36.31,62.9,117.03,84.53,179.93,48.21l195.9-113.1"/><path class="cls-1" d="M340.58,1029.6c18.84,10.88,25.3,34.97,14.42,53.81-10.88,18.84-34.97,25.3-53.81,14.42l-195.89-113.1C4.6,926.6-29.89,797.86,28.24,697.18h0c58.13-100.68,186.87-135.18,287.56-77.05l320.65,185.13c100.68,58.13,135.18,186.87,77.05,287.56h0c-10.88,18.84-34.97,25.3-53.81,14.42-18.84-10.88-25.3-34.97-14.42-53.81,36.31-62.9,14.69-143.61-48.21-179.93l-320.65-185.13c-62.9-36.31-143.61-14.69-179.93,48.21-36.31,62.9-14.69,143.61,48.21,179.93l195.9,113.1"/><path class="cls-1" d="M836.93,1011.98c-18.84-10.88-25.3-34.97-14.42-53.81,10.88-18.84,34.97-25.3,53.81-14.42l195.89,113.1c100.68,58.13,135.18,186.87,77.05,287.56h0c-58.13,100.68-186.87,135.18-287.56,77.05l-320.65-185.13c-100.68-58.13-135.18-186.87-77.05-287.56h0c10.88-18.84,34.97-25.3,53.81-14.42,18.84,10.88,25.3,34.97,14.42,53.81-36.31,62.9-14.69,143.61,48.21,179.93l320.65,185.13c62.9,36.31,143.61,14.69,179.93-48.21,36.31-62.9,14.69-143.61-48.21-179.93l-195.9-113.1"/><path class="cls-1" d="M705.21,1399.77c-18.84,10.88-42.94,4.42-53.81-14.42-10.88-18.84-4.42-42.94,14.42-53.81l195.89-113.1c100.68-58.13,229.43-23.63,287.56,77.05h0c58.13,100.68,23.63,229.43-77.05,287.56l-320.65,185.13c-100.68,58.13-229.43,23.63-287.56-77.05h0c-10.88-18.84-4.42-42.94,14.42-53.81,18.84-10.88,42.94-4.42,53.81,14.42,36.31,62.9,117.03,84.53,179.93,48.21l320.65-185.13c62.9-36.31,84.53-117.03,48.21-179.93-36.31-62.9-117.03-84.53-179.93-48.21l-195.9,113.1"/><path class="cls-1" d="M472.29,1838.43c18.84-10.88,42.94-4.42,53.81,14.42,10.88,18.84,4.42,42.94-14.42,53.81l-195.89,113.1c-100.68,58.13-229.43,23.63-287.56-77.05h0c-58.13-100.68-23.63-229.43,77.05-287.56l320.65-185.13c100.68-58.13,229.43-23.63,287.56,77.05h0c10.88,18.84,4.42,42.94-14.42,53.81-18.84,10.88-42.94,4.42-53.81-14.42-36.31-62.9-117.03-84.53-179.93-48.21l-320.65,185.13c-62.9,36.31-84.53,117.03-48.21,179.93,36.31,62.9,117.03,84.53,179.93,48.21l195.9-113.1"/></svg>